<?xml version="1.0" standalone="no"?>
<!DOCTYPE svg PUBLIC "-//W3C//DTD SVG 20010904//EN"
 "http://www.w3.org/TR/2001/REC-SVG-20010904/DTD/svg10.dtd">
<svg version="1.0" xmlns="http://www.w3.org/2000/svg"
 width="840.000000pt" height="480.000000pt" viewBox="0 0 840.000000 480.000000"
 preserveAspectRatio="xMidYMid meet">

<g transform="translate(0.000000,480.000000) scale(0.100000,-0.100000)"
fill="#000000" stroke="none">
<path d="M2682 4384 c-141 -37 -260 -133 -323 -258 l-35 -70 -89 -17 c-742
-143 -1126 -476 -1113 -964 2 -50 -3 -198 -11 -330 -15 -259 -10 -614 9 -702
14 -63 41 -93 66 -72 53 44 65 149 43 374 -5 61 -11 161 -12 223 -2 135 3 142
93 142 99 0 130 -51 130 -212 0 -52 4 -88 10 -88 5 0 24 30 42 68 l32 67 3
-40 c9 -112 25 -141 71 -124 43 17 59 37 87 110 25 65 29 69 68 80 123 33 270
-42 321 -165 39 -92 48 -337 26 -655 -10 -137 -10 -173 1 -206 19 -54 46 -54
76 0 29 52 75 221 113 415 17 85 35 167 41 183 27 64 106 99 176 77 93 -30
138 -96 168 -250 20 -101 29 -120 55 -120 38 0 53 43 60 174 6 108 10 130 37
187 37 78 113 181 226 303 l85 92 103 19 c57 10 96 20 85 23 -10 2 -104 -3
-210 -12 -587 -50 -1086 -33 -1341 44 -212 65 -403 208 -476 355 -104 211 0
444 280 627 166 109 510 245 693 274 l38 7 0 -60 c0 -222 186 -429 416 -463
140 -21 317 31 394 116 l25 27 -35 -26 c-157 -117 -370 -121 -535 -11 -239
158 -272 499 -68 703 168 167 415 183 613 40 l55 -40 -45 40 c-121 109 -300
155 -448 115z"/>
<path d="M3252 4104 c4 -22 -7 -21 381 -15 272 5 215 15 -142 27 -236 7 -243
7 -239 -12z"/>
<path d="M3995 3421 c-74 -18 -131 -68 -182 -161 -20 -36 -37 -66 -38 -68 -6
-7 -63 23 -87 46 -28 26 -38 75 -18 87 6 3 10 -5 10 -18 0 -40 63 -52 93 -19
41 45 2 82 -83 82 -53 0 -92 -16 -112 -44 -13 -19 -9 -71 8 -95 19 -26 107
-71 141 -71 33 0 35 -12 9 -76 l-24 -59 -84 3 c-93 4 -148 -11 -167 -46 -42
-79 126 -134 248 -81 l48 20 49 -26 c38 -21 57 -25 88 -20 48 7 84 26 115 58
l23 26 33 -35 c40 -42 84 -45 135 -10 l35 24 29 -25 c49 -41 115 -19 173 59
20 28 31 68 18 68 -3 0 -20 -16 -38 -37 -23 -25 -39 -34 -50 -30 -25 9 -21 49
13 124 17 36 30 68 30 70 0 2 -28 4 -62 3 -35 0 -77 2 -94 5 -80 17 -183 -52
-205 -137 -18 -67 -75 -94 -166 -77 -56 11 -71 22 -55 42 7 8 25 44 40 82 l27
67 72 23 c128 40 193 96 193 165 0 72 -66 105 -165 81z m91 -46 c18 -46 -66
-149 -139 -172 -36 -11 -38 -11 -31 10 15 48 58 123 86 149 33 30 75 37 84 13z
m185 -235 c26 -15 24 -33 -12 -101 -32 -59 -60 -79 -94 -66 -45 18 -12 131 48
161 39 19 34 18 58 6z m-626 -160 c22 -8 25 -13 15 -25 -30 -36 -134 -42 -147
-9 -14 38 67 59 132 34z"/>
<path d="M7090 2925 c-8 -2 -62 -7 -120 -10 l-106 -7 -11 -58 c-6 -32 -43
-132 -83 -222 -249 -563 -394 -900 -417 -967 -61 -180 -17 -312 114 -346 133
-35 279 48 423 239 l44 58 20 -64 c45 -138 144 -202 287 -185 79 10 138 42
215 119 l72 70 19 -44 c21 -46 69 -93 112 -110 14 -5 54 -10 89 -10 84 1 166
39 254 121 118 109 222 295 188 335 -22 28 -39 18 -86 -54 -76 -116 -150 -165
-208 -138 -73 33 -50 162 76 428 64 136 70 173 28 179 -14 1 -76 0 -137 -4
-108 -7 -113 -8 -113 -29 0 -35 -10 -37 -44 -12 -50 38 -100 49 -195 44 -215
-11 -449 -186 -527 -396 -10 -26 -23 -50 -30 -54 -7 -5 -24 -29 -39 -55 -67
-115 -132 -173 -196 -173 -50 0 -64 21 -63 89 2 71 7 84 270 697 236 551 243
576 164 559z m525 -779 c79 -33 74 -107 -17 -296 -94 -194 -156 -258 -241
-247 -76 10 -115 80 -103 188 18 182 169 361 309 368 10 1 33 -5 52 -13z"/>
<path d="M4399 2705 c-3 -2 -33 -12 -68 -20 -58 -15 -77 -15 -249 0 -205 19
-304 15 -443 -15 -182 -39 -341 -121 -450 -229 -100 -101 -136 -200 -109 -299
15 -57 77 -124 140 -151 102 -44 278 -45 375 -2 156 69 195 237 69 293 -68 29
-137 15 -197 -41 -36 -32 -57 -72 -57 -105 0 -38 -16 -39 -39 -2 -29 46 -28
117 3 181 51 109 208 217 376 259 90 22 284 39 347 29 l52 -8 -65 -53 c-104
-85 -185 -196 -274 -377 -77 -157 -166 -369 -235 -561 -105 -290 -221 -447
-370 -503 -70 -26 -125 -27 -174 -2 -50 26 -71 60 -71 116 0 39 5 50 39 84 23
23 51 41 67 43 43 5 40 26 -9 73 -119 113 -340 96 -432 -34 -26 -36 -30 -52
-30 -104 0 -77 22 -125 87 -190 103 -103 264 -152 468 -144 147 6 213 23 335
82 174 85 239 158 378 424 43 82 89 159 102 171 22 21 23 21 139 5 133 -18
193 -14 306 21 184 57 338 201 407 381 20 53 26 87 27 153 1 77 -2 90 -29 139
-39 71 -120 151 -231 228 -49 34 -99 70 -112 79 l-24 16 22 23 c12 13 19 28
15 34 -6 11 -77 16 -86 6z m-19 -171 c46 -31 102 -89 121 -126 44 -85 41 -244
-6 -360 -68 -167 -224 -282 -402 -295 -86 -7 -86 -9 -47 105 31 94 196 507
225 565 28 55 73 127 79 127 3 0 17 -7 30 -16z"/>
<path d="M6215 2130 c-28 -11 -86 -42 -130 -69 -44 -27 -81 -48 -83 -46 -2 2
2 22 9 44 19 62 12 65 -137 49 l-128 -13 -14 -55 c-7 -30 -45 -128 -84 -217
-65 -150 -72 -162 -90 -152 -27 15 -40 1 -90 -92 -23 -43 -61 -101 -85 -128
-53 -61 -147 -110 -224 -117 -103 -10 -181 59 -183 160 l-1 41 117 26 c155 34
198 52 257 105 69 62 101 130 101 214 0 78 -22 121 -80 154 -48 28 -200 30
-278 2 -132 -46 -279 -178 -351 -316 -58 -111 -74 -177 -69 -279 5 -101 33
-166 96 -223 80 -72 236 -93 374 -49 85 27 203 105 268 178 27 32 50 53 50 49
0 -5 -19 -51 -41 -103 -23 -51 -40 -95 -38 -97 4 -4 291 25 297 30 2 1 37 92
78 201 102 274 159 387 233 460 32 32 72 66 89 76 l31 18 10 -39 c19 -70 73
-97 154 -77 120 30 188 184 112 255 -34 32 -105 36 -170 10z m-911 -192 c41
-58 -2 -184 -83 -244 -42 -31 -147 -74 -213 -89 -25 -5 -28 -2 -28 20 0 43 49
157 90 210 37 47 104 104 140 118 36 13 79 7 94 -15z"/>
<path d="M847 1973 c-181 -104 -292 -187 -412 -308 -202 -202 -271 -382 -217
-562 118 -386 774 -680 1872 -837 392 -56 436 -59 720 -52 959 24 1651 135
1933 312 31 19 57 37 57 39 0 1 -42 -8 -92 -20 -357 -90 -854 -167 -1266 -195
-196 -13 -626 -13 -807 0 -681 50 -1254 225 -1699 520 -182 121 -284 218 -334
319 -36 73 -37 78 -37 185 0 101 3 118 31 188 47 116 135 239 260 366 61 61
110 112 109 112 -1 0 -54 -30 -118 -67z"/>
<path d="M1138 1820 c-41 -197 -56 -566 -26 -632 57 -128 198 -220 472 -307
365 -116 1046 -202 1706 -215 124 -2 200 -2 170 0 -871 64 -1460 188 -1895
399 -151 73 -274 152 -311 201 -55 71 -92 237 -103 454 -4 94 -8 124 -13 100z"/>
<path d="M7009 1073 c-7 -16 -15 -31 -17 -35 -10 -22 28 -3 58 27 l34 35 -30
0 c-24 0 -34 -7 -45 -27z"/>
<path d="M4810 1013 c-30 -11 -50 -37 -50 -65 0 -21 13 -41 50 -76 28 -26 50
-55 50 -64 0 -25 -26 -29 -53 -8 -21 17 -27 17 -43 5 -18 -13 -18 -14 5 -39
50 -54 141 -24 141 46 0 26 -11 44 -52 85 -37 37 -49 56 -42 63 8 8 19 7 38
-1 22 -11 29 -10 43 4 15 14 13 17 -18 36 -35 22 -44 23 -69 14z"/>
<path d="M3912 878 c3 -128 4 -133 25 -136 20 -3 22 1 25 55 l3 58 39 6 c46 7
66 30 66 75 0 48 -38 74 -107 74 l-54 0 3 -132z m106 55 c3 -20 -1 -23 -27
-23 -27 0 -31 4 -31 26 0 22 4 25 28 22 19 -2 28 -9 30 -25z"/>
<path d="M4379 983 c-6 -15 -28 -73 -50 -129 -21 -55 -39 -103 -39 -107 0 -4
11 -7 24 -7 17 0 27 9 36 30 12 28 16 30 67 30 51 0 55 -2 64 -30 8 -22 17
-30 35 -30 13 0 24 3 24 8 -1 4 -22 63 -49 132 -43 114 -50 125 -74 128 -22 3
-29 -2 -38 -25z m50 -131 c-43 -7 -48 0 -31 43 l16 39 17 -39 c18 -39 18 -40
-2 -43z"/>
<path d="M5120 985 c0 -20 5 -25 25 -25 l25 0 0 -110 0 -110 25 0 25 0 0 110
0 110 25 0 c20 0 25 5 25 25 0 24 -2 25 -75 25 -73 0 -75 -1 -75 -25z"/>
<path d="M5490 875 l0 -136 73 3 c64 3 72 5 72 23 0 17 -8 20 -47 23 -47 3
-48 4 -48 37 0 33 1 34 48 37 40 3 47 6 50 26 3 20 0 22 -47 22 -47 0 -51 2
-51 24 0 23 5 25 48 28 39 3 47 6 47 23 0 18 -8 20 -72 23 l-73 3 0 -136z"/>
<path d="M5870 875 l0 -135 60 0 c57 0 60 1 60 25 0 22 -4 25 -35 25 l-35 0 0
110 0 110 -25 0 -25 0 0 -135z"/>
<path d="M6220 875 l0 -135 70 0 c68 0 70 1 70 25 0 23 -4 25 -45 25 -45 0
-45 0 -45 35 0 35 0 35 45 35 41 0 45 2 45 25 0 23 -4 25 -45 25 -41 0 -45 2
-45 25 0 23 4 25 45 25 41 0 45 2 45 25 0 24 -2 25 -70 25 l-70 0 0 -135z"/>
<path d="M6600 875 l0 -135 25 0 c22 0 24 4 27 58 l3 57 30 -55 c24 -44 36
-56 59 -58 15 -2 27 0 25 5 -2 4 -16 31 -32 60 l-27 52 25 25 c32 32 32 70 0
101 -20 21 -34 25 -80 25 l-55 0 0 -135z m105 60 c0 -14 -8 -21 -27 -23 -24
-3 -28 0 -28 23 0 23 4 26 28 23 19 -2 27 -9 27 -23z"/>
<path d="M7000 874 c0 -135 0 -135 23 -132 21 3 22 7 25 136 l3 132 -26 0 -25
0 0 -136z"/>
<path d="M7361 988 c-48 -125 -91 -239 -91 -243 0 -3 11 -5 24 -5 17 0 27 9
36 30 12 28 16 30 67 30 51 0 55 -2 64 -30 8 -22 17 -30 35 -30 13 0 24 3 24
8 0 4 -22 63 -49 132 -44 113 -51 125 -75 128 -20 3 -28 -2 -35 -20z m54 -95
c8 -20 13 -38 11 -40 -2 -3 -18 -3 -34 -1 l-30 3 15 38 c8 20 17 37 19 37 2 0
11 -16 19 -37z"/>
</g>
</svg>
